# xmcd CD database file
#
# Track frame offsets:
#	150
#	10200
#	33255
#	43607
#	58039
#	84482
#	110912
#	131840
#	153605
#	171317
#	183627
#	197695
#	210295
#	228690
#	251170
#	265945
#
# Disc length: 3736 seconds
#
# Revision: 2
# Processed by: cddbd v1.5.2PL0 Copyright (c) Steve Scherf et al.
# Submitted via: CDex 1.70beta2
#
DISCID=e80e9610
DTITLE=Various Artist - Le Meilleur du Jazz and Crooners
DYEAR=1997
DGENRE=Jazz
TTITLE0=Dean Martin - You're nobody till somebody loves you
TTITLE1=Ella Fitzgerald - Mack the knife
TTITLE2=Louis Armstrong - What a wonderful world
TTITLE3=Nat King Cole - Unfogettable
TTITLE4=Sarah Vaughan - Misty
TTITLE5=Stan Getz and Charlie Byrd - Desafinado
TTITLE6=Duke Ellington - Take the A train
TTITLE7=Oscar Peterson - Night train
TTITLE8=Dizzy Gillepsie - This is the way
TTITLE9=Count Basie - Come fly with me
TTITLE10=Charlie Parker - April in Paris
TTITLE11=Miles Davis - Générique du film 'Ascenseur pour l'échafaud'
TTITLE12=Chet Baker - Born to be blue
TTITLE13=Dexter Gordon - The shadow of your smile
TTITLE14=Django Reinhardt - Nuages
TTITLE15=Sidney Bechet - Petite fleur
EXTD=YEAR: 1997
EXTT0=
EXTT1=
EXTT2=
EXTT3=
EXTT4=
EXTT5=
EXTT6=
EXTT7=
EXTT8=
EXTT9=
EXTT10=
EXTT11=
EXTT12=
EXTT13=
EXTT14=
EXTT15=
PLAYORDER=
